<svg xmlns="http://www.w3.org/2000/svg" fill="none" viewBox="0 0 57 65" height="65" width="57">
<path fill="#034A4C" d="M31.4483 0.90628C20.2295 0.90628 10.8054 8.57995 8.13522 18.9637C6.82272 24.0641 4.74256 28.939 1.80023 33.3124L1.67036 33.5046C1.66903 33.5071 1.66704 33.511 1.66453 33.5162C1.65873 33.5281 1.65015 33.5468 1.64035 33.5718C1.62072 33.6218 1.59637 33.6965 1.57953 33.7911C1.54596 33.9796 1.5419 34.2487 1.66604 34.5643C1.91408 35.195 2.6909 36.0501 4.88456 36.8047C4.9465 36.8261 4.98951 36.8711 5.01877 36.9151C5.04831 36.9594 5.07083 37.0129 5.0889 37.0699C5.12508 37.1839 5.15061 37.3351 5.16912 37.5132C5.2063 37.8708 5.21771 38.3647 5.21577 38.9496C5.21372 39.5694 5.19648 40.3017 5.17787 41.0928C5.16143 41.7913 5.14391 42.5357 5.13481 43.2889C5.11533 44.9018 5.13403 46.5674 5.2816 47.9613C5.35539 48.6583 5.46102 49.2835 5.6087 49.7983C5.75712 50.3157 5.94438 50.7083 6.17301 50.9525C7.18899 52.0375 8.65056 52.76 10.3511 53.186C12.0508 53.6117 13.9807 53.7389 15.9219 53.6401C19.8086 53.4422 23.7124 52.34 25.8756 50.9475C25.9166 50.921 25.9689 50.9192 26.0118 50.9427C26.0546 50.9662 26.0812 51.0112 26.081 51.0601C26.065 55.4174 25.6269 59.7747 24.7746 64.0466C24.7602 64.1188 24.69 64.1657 24.6178 64.1513C24.5456 64.1369 24.4987 64.0667 24.5131 63.9944C25.3463 59.8185 25.7821 55.5604 25.8131 51.3008C23.5646 52.6641 19.7321 53.7131 15.9355 53.9064C13.9756 54.0062 12.0181 53.8784 10.2863 53.4446C8.55516 53.011 7.04079 52.2694 5.97838 51.1347C5.70708 50.845 5.50522 50.4045 5.35241 49.8718C5.19884 49.3365 5.09111 48.6945 5.01646 47.9894C4.86715 46.579 4.84869 44.9004 4.8682 43.2857C4.87741 42.5238 4.89498 41.7788 4.91142 41.0816C4.92997 40.2951 4.94708 39.5693 4.94914 38.9488C4.95108 38.3648 4.93951 37.8832 4.90392 37.5407C4.88604 37.3687 4.86274 37.2387 4.83476 37.1505C4.82076 37.1064 4.80737 37.0787 4.79682 37.0628C4.79411 37.0587 4.79199 37.056 4.79055 37.0544C2.57152 36.2897 1.70748 35.3982 1.4179 34.6619C1.27308 34.2937 1.27618 33.9738 1.31702 33.7444C1.33738 33.63 1.36704 33.5384 1.39213 33.4745C1.40469 33.4424 1.41613 33.4173 1.42477 33.3995C1.42909 33.3906 1.43272 33.3836 1.43543 33.3785L1.4388 33.3722L1.43993 33.3702L1.44051 33.3692C1.44059 33.3691 1.44066 33.3689 1.5563 33.4353L1.44066 33.3689C1.44228 33.3661 1.44401 33.3633 1.44584 33.3606L1.579 33.1635C1.57899 33.1636 1.57901 33.1635 1.579 33.1635C4.50254 28.8181 6.57119 23.9716 7.877 18.8973C10.5768 8.39857 20.1048 0.639648 31.4483 0.639648C44.8908 0.639648 55.7891 11.5379 55.7891 24.9804C55.7891 29.6155 54.122 33.48 52.2209 37.2511C51.9156 37.8569 51.6043 38.46 51.2929 39.0635C49.6623 42.2231 48.0271 45.3917 47.2082 48.9934C46.2225 53.3271 45.9611 59.7183 45.8464 64.1786C45.8445 64.2522 45.7833 64.3103 45.7097 64.3084C45.636 64.3065 45.5779 64.2453 45.5798 64.1717C45.6944 59.7159 45.9556 53.2981 46.9482 48.9343C47.7753 45.2965 49.4287 42.0934 51.0595 38.9339C51.3701 38.3323 51.6798 37.7323 51.9828 37.1311C53.8806 33.3666 55.5224 29.5494 55.5224 24.9804C55.5224 11.6851 44.7436 0.90628 31.4483 0.90628Z" clip-rule="evenodd" fill-rule="evenodd"></path>
<path stroke-linejoin="round" stroke-linecap="round" stroke-width="0.3" stroke="#034A4C" d="M1.579 33.1635L1.44584 33.3606C1.44401 33.3633 1.44228 33.3661 1.44066 33.3689L1.5563 33.4353C1.44066 33.3689 1.44059 33.3691 1.44051 33.3692L1.43993 33.3702L1.4388 33.3722L1.43543 33.3785C1.43272 33.3836 1.42909 33.3906 1.42477 33.3995C1.41613 33.4173 1.40469 33.4424 1.39213 33.4745C1.36704 33.5384 1.33738 33.63 1.31702 33.7444C1.27618 33.9738 1.27308 34.2937 1.4179 34.6619C1.70748 35.3982 2.57152 36.2897 4.79055 37.0544C4.79199 37.056 4.79411 37.0587 4.79682 37.0628C4.80737 37.0787 4.82076 37.1064 4.83476 37.1505C4.86274 37.2387 4.88604 37.3687 4.90392 37.5407C4.93951 37.8832 4.95108 38.3648 4.94914 38.9488C4.94708 39.5693 4.92997 40.2951 4.91142 41.0816C4.89498 41.7788 4.87741 42.5238 4.8682 43.2857C4.84869 44.9004 4.86715 46.579 5.01646 47.9894C5.09111 48.6945 5.19884 49.3365 5.35241 49.8718C5.50522 50.4045 5.70708 50.845 5.97838 51.1347C7.04079 52.2694 8.55516 53.011 10.2863 53.4446C12.0181 53.8784 13.9756 54.0062 15.9355 53.9064C19.7321 53.7131 23.5646 52.6641 25.8131 51.3008C25.7821 55.5604 25.3463 59.8185 24.5131 63.9944C24.4987 64.0667 24.5456 64.1369 24.6178 64.1513C24.69 64.1657 24.7602 64.1188 24.7746 64.0466C25.6269 59.7747 26.065 55.4174 26.081 51.0601C26.0812 51.0112 26.0546 50.9662 26.0118 50.9427C25.9689 50.9192 25.9166 50.921 25.8756 50.9475C23.7124 52.34 19.8086 53.4422 15.9219 53.6401C13.9807 53.7389 12.0508 53.6117 10.3511 53.186C8.65056 52.76 7.18899 52.0375 6.17301 50.9525C5.94438 50.7083 5.75712 50.3157 5.6087 49.7983C5.46102 49.2835 5.35539 48.6583 5.2816 47.9613C5.13403 46.5674 5.11533 44.9018 5.13481 43.2889C5.14391 42.5357 5.16143 41.7913 5.17787 41.0928C5.19648 40.3017 5.21372 39.5694 5.21577 38.9496C5.21771 38.3647 5.2063 37.8708 5.16912 37.5132C5.15061 37.3351 5.12508 37.1839 5.0889 37.0699C5.07083 37.0129 5.04831 36.9594 5.01877 36.915C4.98951 36.8711 4.9465 36.8261 4.88456 36.8047C2.6909 36.0501 1.91408 35.195 1.66604 34.5643C1.5419 34.2487 1.54596 33.9796 1.57953 33.7911C1.59637 33.6965 1.62072 33.6218 1.64035 33.5718C1.65015 33.5468 1.65873 33.5281 1.66453 33.5162C1.66704 33.511 1.66903 33.5071 1.67036 33.5046L1.80023 33.3124C4.74256 28.939 6.82272 24.0641 8.13522 18.9637C10.8054 8.57995 20.2295 0.90628 31.4483 0.90628C44.7436 0.90628 55.5224 11.6851 55.5224 24.9804C55.5224 29.5494 53.8806 33.3666 51.9828 37.1311C51.6798 37.7323 51.3701 38.3323 51.0595 38.9339C49.4287 42.0934 47.7753 45.2965 46.9482 48.9343C45.9556 53.2981 45.6944 59.7159 45.5798 64.1717C45.5779 64.2453 45.636 64.3065 45.7097 64.3084C45.7833 64.3103 45.8445 64.2522 45.8464 64.1786C45.9611 59.7183 46.2225 53.3271 47.2082 48.9934M1.579 33.1635C1.57899 33.1636 1.57901 33.1635 1.579 33.1635ZM1.579 33.1635C4.50254 28.8181 6.57119 23.9716 7.877 18.8973C10.5768 8.39857 20.1048 0.639648 31.4483 0.639648C44.8908 0.639648 55.7891 11.5379 55.7891 24.9804C55.7891 29.6155 54.122 33.48 52.2209 37.2511C51.9156 37.8569 51.6043 38.46 51.2928 39.0635C49.6623 42.2231 48.0271 45.3917 47.2082 48.9934M47.2082 48.9934L47.0782 48.9639"></path>
<path fill="url(#paint0_linear_1881_965)" d="M46.2102 18.0091L43.8981 17.5111C43.6982 16.8894 43.4477 16.2868 43.1464 15.7096L44.3294 13.5908C44.5483 13.2007 44.4499 12.6615 44.0979 12.3095L41.5288 9.74037C41.3099 9.52152 41.0181 9.39782 40.7263 9.39782C40.5424 9.39782 40.3711 9.44857 40.2252 9.54055L38.2365 10.8219C37.6593 10.5238 37.0535 10.2764 36.4318 10.0797L35.7689 7.74218C35.6484 7.314 35.198 7 34.7 7H31.0652C30.5483 7 30.101 7.32986 30.0027 7.78342L29.5048 10.0956C28.8831 10.2954 28.2805 10.546 27.7032 10.8473L25.5845 9.66425C25.4481 9.58813 25.2895 9.5469 25.1246 9.5469C24.8296 9.5469 24.522 9.67694 24.3031 9.89579L21.734 12.4649C21.3693 12.8328 21.2836 13.3815 21.5374 13.7685L22.8188 15.7571C22.5206 16.3344 22.2732 16.9402 22.0766 17.5618L19.7422 18.2247C19.314 18.3453 19 18.7957 19 19.2936V22.9284C19 23.4454 19.3299 23.8926 19.7834 23.9909L22.0956 24.4889C22.2954 25.1106 22.546 25.7132 22.8473 26.2904L21.6642 28.4092C21.4454 28.7993 21.5437 29.3385 21.8958 29.6905L24.4649 32.2596C24.6837 32.4785 24.9755 32.6022 25.2673 32.6022C25.4513 32.6022 25.6226 32.5514 25.7685 32.4594L27.7571 31.1781C28.3344 31.4762 28.9402 31.7236 29.5618 31.9203L30.2247 34.2578C30.3453 34.686 30.7956 35 31.2936 35H34.9284C35.4454 35 35.8926 34.6701 35.9909 34.2166L36.4889 31.9044C37.1106 31.7046 37.7132 31.454 38.2904 31.1527L40.4092 32.3358C40.5455 32.4119 40.7041 32.4531 40.8691 32.4531C41.164 32.4531 41.4717 32.3231 41.6905 32.1042L44.2596 29.5351C44.6276 29.1672 44.71 28.6185 44.4594 28.2315L43.1781 26.2429C43.4762 25.6656 43.7236 25.0598 43.9203 24.4382L46.2578 23.7753C46.686 23.6547 47 23.2043 47 22.7064V19.0716C47 18.5546 46.6701 18.1074 46.2166 18.0091H46.2102Z"></path>
<path stroke-miterlimit="10" stroke-width="0.3" stroke-opacity="0.5" stroke="#034A4C" fill-opacity="0.5" fill="#034A4C" d="M25.8274 21.4184C25.8274 17.516 29.0013 14.342 32.9038 14.342C36.8062 14.342 39.9802 17.516 39.9802 21.4184C39.9802 25.3209 36.8062 28.4948 32.9038 28.4948C29.0013 28.4948 25.8274 25.3209 25.8274 21.4184ZM32.9038 14.6087C29.1486 14.6087 26.094 17.6632 26.094 21.4184C26.094 25.1736 29.1486 28.2282 32.9038 28.2282C36.659 28.2282 39.7135 25.1736 39.7135 21.4184C39.7135 17.6632 36.659 14.6087 32.9038 14.6087Z" clip-rule="evenodd" fill-rule="evenodd"></path>
<path stroke-miterlimit="10" stroke-width="0.3" stroke-opacity="0.5" stroke="#034A4C" fill-opacity="0.5" fill="#034A4C" d="M28.1631 21.4182C28.1631 18.8036 30.2892 16.6775 32.9038 16.6775C35.5184 16.6775 37.6445 18.8036 37.6445 21.4182C37.6445 24.0328 35.5184 26.1589 32.9038 26.1589C30.2892 26.1589 28.1631 24.0328 28.1631 21.4182ZM32.9038 16.9441C30.4364 16.9441 28.4297 18.9508 28.4297 21.4182C28.4297 23.8856 30.4364 25.8923 32.9038 25.8923C35.3712 25.8923 37.3779 23.8856 37.3779 21.4182C37.3779 18.9508 35.3712 16.9441 32.9038 16.9441Z" clip-rule="evenodd" fill-rule="evenodd"></path>
<defs>
<linearGradient gradientUnits="userSpaceOnUse" y2="35" x2="33" y1="7" x1="33" id="paint0_linear_1881_965">
<stop stop-color="#6DD7CF"></stop>
<stop stop-opacity="0" stop-color="#6DD7CF" offset="1"></stop>
</linearGradient>
</defs>
</svg>
