<svg xmlns="http://www.w3.org/2000/svg" fill="none" viewBox="0 0 49 57" height="57" width="49">
<g clip-path="url(#clip0_1881_974)">
<path stroke-miterlimit="10" stroke-width="0.3" stroke="#034A4C" fill="#034A4C" d="M16.9859 3.40997C14.7333 3.40997 12.9073 5.23602 12.9073 7.48858C12.9073 9.74113 14.7333 11.5672 16.9859 11.5672C19.2384 11.5672 21.0645 9.74113 21.0645 7.48858C21.0645 5.23602 19.2384 3.40997 16.9859 3.40997ZM12.674 7.48858C12.674 5.10716 14.6045 3.17664 16.9859 3.17664C19.3673 3.17664 21.2978 5.10716 21.2978 7.48858C21.2978 9.87 19.3673 11.8005 16.9859 11.8005C14.6045 11.8005 12.674 9.87 12.674 7.48858Z" clip-rule="evenodd" fill-rule="evenodd"></path>
<path fill="#034A4C" d="M31.4248 0.922852L31.8465 1.03627C33.2704 1.41925 33.9941 3.02306 33.3102 4.33417C30.3787 9.96348 26.5845 15.1089 22.0609 19.5787L22.0373 19.6021V28.9694L31.4276 52.6439C32.1841 54.5509 30.7465 56.6136 28.6936 56.5625C27.5456 56.5333 26.5264 55.8231 26.1031 54.7552L18.0801 34.5268H15.7872L8.03905 54.7074C7.62555 55.7849 6.60399 56.5097 5.45097 56.5438C3.40781 56.6046 1.95801 54.5639 2.69265 52.6543L11.8151 28.8959V19.5467C7.30679 15.0849 3.52449 9.95372 0.600411 4.33642C-0.083281 3.02547 0.640188 1.41917 2.06442 1.03855C3.13135 0.753381 4.24141 1.26258 4.73954 2.2441C7.2746 7.23761 10.599 11.7913 14.5859 15.7321H19.3225C23.314 11.7913 26.6384 7.23763 29.1735 2.2441C29.6131 1.37793 30.531 0.879581 31.4724 0.970403L31.4248 0.922852ZM31.8647 1.28443L31.7883 1.26395C30.8323 1.00784 29.8307 1.46461 29.3815 2.34971C26.8279 7.37986 23.4768 11.9657 19.4522 15.9318L19.4181 15.9654H14.4902L14.4561 15.9318C10.4362 11.9657 7.08514 7.37987 4.53148 2.34972C4.08229 1.46461 3.08304 1.00781 2.12467 1.26397C0.842303 1.60667 0.193787 3.05226 0.807336 4.2286C3.72769 9.83876 7.50744 14.9623 12.0137 19.415L12.0484 19.4493V28.9392L2.91045 52.7381C2.23577 54.4918 3.56724 56.3664 5.44403 56.3106C6.50295 56.2793 7.4414 55.6135 7.82121 54.6237L15.6269 34.2935H18.2386L26.32 54.6692C26.7087 55.65 27.6448 56.3024 28.6994 56.3292C30.5851 56.3761 31.9055 54.4815 31.2107 52.7299L21.7185 28.7986H21.8039V19.1557L21.9794 19.3311C26.4493 14.8974 30.2008 9.79996 33.1033 4.22633C33.7041 3.07451 33.0949 1.66628 31.8647 1.28443Z" clip-rule="evenodd" fill-rule="evenodd"></path>
<path stroke-miterlimit="10" stroke-width="0.3" stroke="#034A4C" d="M5.44403 56.3106C3.56724 56.3664 2.23577 54.4918 2.91045 52.7381L12.0484 28.9392V19.4493L12.0137 19.415C7.50744 14.9623 3.72769 9.83876 0.807336 4.2286C0.193787 3.05226 0.842303 1.60667 2.12467 1.26397C3.08304 1.00781 4.08229 1.46461 4.53148 2.34972C7.08514 7.37987 10.4362 11.9657 14.4561 15.9318L14.4902 15.9654H19.4181L19.4522 15.9318C23.4768 11.9657 26.8279 7.37986 29.3815 2.34971C29.8307 1.46461 30.8323 1.00784 31.7883 1.26395L31.8647 1.28443C33.0949 1.66628 33.7041 3.07451 33.1033 4.22633C30.2008 9.79996 26.4493 14.8974 21.9794 19.3311L21.8039 19.1557V28.7986H21.7185L31.2107 52.7299C31.9055 54.4815 30.5851 56.3761 28.6994 56.3292C27.6448 56.3024 26.7087 55.65 26.32 54.6692L18.2386 34.2935H15.6269L7.82121 54.6237M5.44403 56.3106L5.4475 56.4272M5.44403 56.3106C6.50295 56.2793 7.4414 55.6135 7.82121 54.6237M7.82121 54.6237L7.93013 54.6655M31.8465 1.03627L31.4248 0.922852L31.4724 0.970403C30.531 0.879581 29.6131 1.37793 29.1735 2.2441C26.6384 7.23763 23.314 11.7913 19.3225 15.7321H14.5859C10.599 11.7913 7.2746 7.23761 4.73954 2.2441C4.24141 1.26258 3.13135 0.753381 2.06442 1.03855C0.640188 1.41917 -0.083281 3.02547 0.600411 4.33642C3.52449 9.95372 7.30679 15.0849 11.8151 19.5467V28.8959L2.69265 52.6543C1.95801 54.5639 3.40781 56.6046 5.45097 56.5438C6.60399 56.5097 7.62555 55.7849 8.03905 54.7074L15.7872 34.5268H18.0801L26.1031 54.7552C26.5263 55.8231 27.5456 56.5333 28.6936 56.5625C30.7465 56.6136 32.1841 54.5509 31.4276 52.6439L22.0373 28.9694V19.6021L22.0609 19.5787C26.5845 15.1089 30.3787 9.96348 33.3102 4.33417C33.9941 3.02306 33.2704 1.41925 31.8465 1.03627Z"></path>
<path stroke-miterlimit="10" stroke-width="0.3" stroke="#034A4C" fill="#034A4C" d="M41.6138 19.673H21.9814V19.4397H41.6138V19.673Z" clip-rule="evenodd" fill-rule="evenodd"></path>
<path fill="url(#paint0_linear_1881_974)" d="M45.5 23C43.5702 23 42 21.4298 42 19.5C42 17.5702 43.5702 16 45.5 16C47.4298 16 49 17.5702 49 19.5C49 21.4298 47.4298 23 45.5 23Z"></path>
<path stroke-miterlimit="10" stroke-width="0.3" stroke="#034A4C" fill="#034A4C" d="M31.73 29.0341H12.1V28.8008H31.73V29.0341Z" clip-rule="evenodd" fill-rule="evenodd"></path>
<path fill="url(#paint1_linear_1881_974)" d="M35.5 32C33.5702 32 32 30.4298 32 28.5C32 26.5702 33.5702 25 35.5 25C37.4298 25 39 26.5702 39 28.5C39 30.4298 37.4298 32 35.5 32Z"></path>
<path stroke-miterlimit="10" stroke-width="0.3" stroke="#034A4C" fill="#034A4C" d="M41.546 41.1092H26.6805V40.8759H41.546V41.1092Z" clip-rule="evenodd" fill-rule="evenodd"></path>
<path fill="url(#paint2_linear_1881_974)" d="M45.5 44C43.5702 44 42 42.4298 42 40.5C42 38.5702 43.5702 37 45.5 37C47.4298 37 49 38.5702 49 40.5C49 42.4298 47.4298 44 45.5 44Z"></path>
</g>
<defs>
<linearGradient gradientUnits="userSpaceOnUse" y2="22.6791" x2="47.4144" y1="16.1723" x1="43.5695" id="paint0_linear_1881_974">
<stop stop-color="#6DD7CF"></stop>
<stop stop-opacity="0.29" stop-color="#6DD7CF" offset="1"></stop>
</linearGradient>
<linearGradient gradientUnits="userSpaceOnUse" y2="31.6791" x2="37.4144" y1="25.1723" x1="33.5695" id="paint1_linear_1881_974">
<stop stop-color="#6DD7CF"></stop>
<stop stop-opacity="0.29" stop-color="#6DD7CF" offset="1"></stop>
</linearGradient>
<linearGradient gradientUnits="userSpaceOnUse" y2="43.6791" x2="47.4144" y1="37.1723" x1="43.5695" id="paint2_linear_1881_974">
<stop stop-color="#6DD7CF"></stop>
<stop stop-opacity="0.29" stop-color="#6DD7CF" offset="1"></stop>
</linearGradient>
<clipPath id="clip0_1881_974">
<rect fill="white" height="57" width="49"></rect>
</clipPath>
</defs>
</svg>
