<svg xmlns="http://www.w3.org/2000/svg" fill="none" viewBox="0 0 48 48" height="48" width="48">
<path stroke-width="0.3" stroke="#034A4C" fill="#034A4C" d="M24.0001 47.0512C11.2897 47.0512 0.948853 36.7104 0.948853 24.0001C0.948853 11.2897 11.2897 0.948853 24.0001 0.948853C36.7104 0.948853 47.0512 11.2897 47.0512 24.0001C47.0512 36.7104 36.7104 47.0512 24.0001 47.0512ZM24.0001 1.18885C11.4225 1.18885 1.18885 11.4225 1.18885 24.0001C1.18885 36.5776 11.4225 46.8112 24.0001 46.8112C36.5776 46.8112 46.8112 36.5776 46.8112 24.0001C46.8112 11.4225 36.5776 1.18885 24.0001 1.18885Z"></path>
<path stroke-width="0.3" stroke="#034A4C" fill="#034A4C" d="M24.0001 38.4545C16.0305 38.4545 9.54565 31.9713 9.54565 24.0001C9.54565 16.0289 16.0289 9.54565 24.0001 9.54565C31.9713 9.54565 38.4545 16.0289 38.4545 24.0001C38.4545 31.9713 31.9713 38.4545 24.0001 38.4545V38.4545ZM24.0001 9.78565C16.1617 9.78565 9.78565 16.1617 9.78565 24.0001C9.78565 31.8385 16.1617 38.2145 24.0001 38.2145C31.8385 38.2145 38.2145 31.8385 38.2145 24.0001C38.2145 16.1617 31.8385 9.78565 24.0001 9.78565V9.78565Z"></path>
<path fill="url(#paint0_linear_2315_512)" d="M24 30.6576C20.3296 30.6576 17.3424 27.6704 17.3424 24C17.3424 20.3296 20.3296 17.3424 24 17.3424C27.6704 17.3424 30.6576 20.3296 30.6576 24C30.6576 27.6704 27.6704 30.6576 24 30.6576Z"></path>
<defs>
<linearGradient gradientUnits="userSpaceOnUse" y2="30.6576" x2="24" y1="17.3424" x1="24" id="paint0_linear_2315_512">
<stop stop-color="#6DD7CF"></stop>
<stop stop-opacity="0.36" stop-color="#6DD7CF" offset="1"></stop>
</linearGradient>
</defs>
</svg>
