<svg xmlns="http://www.w3.org/2000/svg" fill="none" viewBox="0 0 32 54" height="54" width="32">
<path stroke-width="0.3" stroke="#034A4C" fill="#034A4C" d="M29.0497 48.6512H2.94885V39.9312C2.94885 32.736 8.80325 26.8816 16.0001 26.8816C23.1969 26.8816 29.0497 32.736 29.0497 39.9312V48.6512ZM3.18725 48.4128H28.8097V39.9312C28.8097 32.8672 23.0625 27.12 15.9985 27.12C8.93445 27.12 3.18725 32.8672 3.18725 39.9312V48.4128Z"></path>
<path fill="url(#paint0_linear_2315_513)" d="M15.9936 33.824C14.072 33.824 12.5072 32.2608 12.5072 30.3376C12.5072 28.4144 14.0704 26.8512 15.9936 26.8512C17.9168 26.8512 19.48 28.4144 19.48 30.3376C19.48 32.2608 17.9168 33.824 15.9936 33.824Z"></path>
<path stroke-width="0.3" stroke="#034A4C" fill="#034A4C" d="M31.4368 53.5456H0.561646V48.4128H31.4368V53.5456ZM0.801646 53.3072H31.1984V48.6528H0.801646V53.3072Z"></path>
<path stroke-width="0.3" stroke="#034A4C" fill="#034A4C" d="M16.0001 27.12C8.80325 27.12 2.94885 21.2656 2.94885 14.0688V5.34875H29.0497V14.0688C29.0497 21.2656 23.1953 27.12 16.0001 27.12ZM3.18885 5.58875V14.0704C3.18885 21.1344 8.93605 26.8816 16.0001 26.8816C23.0641 26.8816 28.8113 21.1344 28.8113 14.0704V5.58875H3.18885Z"></path>
<path stroke-width="0.3" stroke="#034A4C" fill="#034A4C" d="M31.4368 5.58715H0.561646V0.454346H31.4368V5.58715ZM0.801646 5.34875H31.1984V0.694346H0.801646V5.34875Z"></path>
<path stroke-width="0.3" stroke="#034A4C" fill="#034A4C" d="M25.5632 48.6128C24.4416 47.3824 22.5328 45.7376 19.8048 44.8864C18.5952 44.5088 17.2768 44.3104 15.9936 44.3104C12.344 44.3104 8.85595 45.8736 6.42395 48.6L6.24475 48.44C8.72155 45.6624 12.2752 44.0704 15.992 44.0704C17.2992 44.0704 18.6416 44.2736 19.8752 44.6576C22.6544 45.5232 24.5984 47.1984 25.7392 48.4512L25.5616 48.6128H25.5632Z"></path>
<defs>
<linearGradient gradientUnits="userSpaceOnUse" y2="33.9999" x2="15.8193" y1="26.8512" x1="15.9936" id="paint0_linear_2315_513">
<stop stop-color="#6DD7CF"></stop>
<stop stop-opacity="0.23" stop-color="#6DD7CF" offset="1"></stop>
</linearGradient>
</defs>
</svg>
