<svg xmlns="http://www.w3.org/2000/svg" fill="none" viewBox="0 0 168 27" height="27" width="168">
<g clip-path="url(#clip0_1714_1998)">
<path fill="#FFCB30" d="M25.3969 9.98863H17.5696C17.1259 9.98979 16.733 9.70334 16.5966 9.2789L14.1793 1.81055C14.0418 1.38726 13.6501 1.10083 13.2064 1.10083C12.7627 1.10083 12.371 1.38727 12.2335 1.81055L9.81617 9.2789C9.67982 9.70335 9.28694 9.98979 8.84323 9.98863H1.0159C0.574501 9.99095 0.183948 10.2786 0.0487644 10.7007C-0.0864279 11.124 0.0660968 11.5855 0.42429 11.8441L6.74952 16.455C7.10771 16.7159 7.25676 17.1786 7.11927 17.6008L4.70197 25.0795C4.56447 25.5017 4.71353 25.9644 5.07173 26.2253C5.42994 26.4862 5.91525 26.4862 6.27229 26.2253L12.6147 21.6085C12.9729 21.3476 13.4582 21.3476 13.8152 21.6085L20.1405 26.2253C20.4975 26.4862 20.9828 26.4862 21.341 26.2253C21.6992 25.9644 21.8483 25.5017 21.7108 25.0795L19.2935 17.6064C19.1525 17.1831 19.3027 16.7158 19.6632 16.4549L25.9964 11.844C26.357 11.5842 26.5083 11.1203 26.3708 10.697C26.2345 10.2726 25.8404 9.98732 25.3967 9.98848L25.3969 9.98863Z"></path>
</g>
<g clip-path="url(#clip1_1714_1998)">
<path fill="#FFCB30" d="M60.6249 9.98863H52.7976C52.3539 9.98979 51.961 9.70334 51.8247 9.2789L49.4074 1.81055C49.2699 1.38726 48.8781 1.10083 48.4344 1.10083C47.9907 1.10083 47.599 1.38727 47.4615 1.81055L45.0442 9.2789C44.9078 9.70335 44.515 9.98979 44.0713 9.98863H36.2439C35.8025 9.99095 35.412 10.2786 35.2768 10.7007C35.1416 11.124 35.2941 11.5855 35.6523 11.8441L41.9775 16.455C42.3357 16.7159 42.4848 17.1786 42.3473 17.6008L39.93 25.0795C39.7925 25.5017 39.9416 25.9644 40.2998 26.2253C40.658 26.4862 41.1433 26.4862 41.5003 26.2253L47.8427 21.6085C48.2009 21.3476 48.6862 21.3476 49.0433 21.6085L55.3685 26.2253C55.7255 26.4862 56.2109 26.4862 56.569 26.2253C56.9272 25.9644 57.0763 25.5017 56.9388 25.0795L54.5215 17.6064C54.3805 17.1831 54.5307 16.7158 54.8913 16.4549L61.2245 11.844C61.585 11.5842 61.7364 11.1203 61.5988 10.697C61.4625 10.2726 61.0685 9.98732 60.6248 9.98848L60.6249 9.98863Z"></path>
</g>
<g clip-path="url(#clip2_1714_1998)">
<path fill="#FFCB30" d="M95.853 9.98863H88.0256C87.5819 9.98979 87.1891 9.70334 87.0527 9.2789L84.6354 1.81055C84.4979 1.38726 84.1062 1.10083 83.6625 1.10083C83.2188 1.10083 82.827 1.38727 82.6895 1.81055L80.2722 9.2789C80.1359 9.70335 79.743 9.98979 79.2993 9.98863H71.472C71.0306 9.99095 70.64 10.2786 70.5048 10.7007C70.3696 11.124 70.5222 11.5855 70.8803 11.8441L77.2056 16.455C77.5638 16.7159 77.7128 17.1786 77.5753 17.6008L75.158 25.0795C75.0205 25.5017 75.1696 25.9644 75.5278 26.2253C75.886 26.4862 76.3713 26.4862 76.7283 26.2253L83.0707 21.6085C83.4289 21.3476 83.9143 21.3476 84.2713 21.6085L90.5965 26.2253C90.9536 26.4862 91.4389 26.4862 91.7971 26.2253C92.1553 25.9644 92.3043 25.5017 92.1668 25.0795L89.7495 17.6064C89.6086 17.1831 89.7588 16.7158 90.1193 16.4549L96.4525 11.844C96.813 11.5842 96.9644 11.1203 96.8269 10.697C96.6905 10.2726 96.2965 9.98732 95.8528 9.98848L95.853 9.98863Z"></path>
</g>
<g clip-path="url(#clip3_1714_1998)">
<path fill="#FFCB30" d="M131.081 9.98863H123.254C122.81 9.98979 122.417 9.70334 122.281 9.2789L119.863 1.81055C119.726 1.38726 119.334 1.10083 118.89 1.10083C118.447 1.10083 118.055 1.38727 117.918 1.81055L115.5 9.2789C115.364 9.70335 114.971 9.98979 114.527 9.98863H106.7C106.259 9.99095 105.868 10.2786 105.733 10.7007C105.598 11.124 105.75 11.5855 106.108 11.8441L112.434 16.455C112.792 16.7159 112.941 17.1786 112.803 17.6008L110.386 25.0795C110.249 25.5017 110.398 25.9644 110.756 26.2253C111.114 26.4862 111.599 26.4862 111.956 26.2253L118.299 21.6085C118.657 21.3476 119.142 21.3476 119.499 21.6085L125.825 26.2253C126.182 26.4862 126.667 26.4862 127.025 26.2253C127.383 25.9644 127.532 25.5017 127.395 25.0795L124.978 17.6064C124.837 17.1831 124.987 16.7158 125.347 16.4549L131.681 11.844C132.041 11.5842 132.192 11.1203 132.055 10.697C131.919 10.2726 131.525 9.98732 131.081 9.98848L131.081 9.98863Z"></path>
</g>
<g clip-path="url(#clip4_1714_1998)">
<path fill="#FFCB30" d="M166.309 9.98863H158.482C158.038 9.98979 157.645 9.70334 157.509 9.2789L155.092 1.81055C154.954 1.38726 154.562 1.10083 154.119 1.10083C153.675 1.10083 153.283 1.38727 153.146 1.81055L150.729 9.2789C150.592 9.70335 150.199 9.98979 149.756 9.98863H141.928C141.487 9.99095 141.096 10.2786 140.961 10.7007C140.826 11.124 140.978 11.5855 141.337 11.8441L147.662 16.455C148.02 16.7159 148.169 17.1786 148.032 17.6008L145.614 25.0795C145.477 25.5017 145.626 25.9644 145.984 26.2253C146.342 26.4862 146.828 26.4862 147.185 26.2253L153.527 21.6085C153.885 21.3476 154.371 21.3476 154.728 21.6085L161.053 26.2253C161.41 26.4862 161.895 26.4862 162.253 26.2253C162.612 25.9644 162.761 25.5017 162.623 25.0795L160.206 17.6064C160.065 17.1831 160.215 16.7158 160.576 16.4549L166.909 11.844C167.269 11.5842 167.421 11.1203 167.283 10.697C167.147 10.2726 166.753 9.98732 166.309 9.98848L166.309 9.98863Z"></path>
</g>
<defs>
<clipPath id="clip0_1714_1998">
<rect fill="white" height="26.4211" width="26.4211"></rect>
</clipPath>
<clipPath id="clip1_1714_1998">
<rect transform="translate(35.228)" fill="white" height="26.4211" width="26.4211"></rect>
</clipPath>
<clipPath id="clip2_1714_1998">
<rect transform="translate(70.4561)" fill="white" height="26.4211" width="26.4211"></rect>
</clipPath>
<clipPath id="clip3_1714_1998">
<rect transform="translate(105.684)" fill="white" height="26.4211" width="26.4211"></rect>
</clipPath>
<clipPath id="clip4_1714_1998">
<rect transform="translate(140.912)" fill="white" height="26.4211" width="26.4211"></rect>
</clipPath>
</defs>
</svg>
