<svg xmlns="http://www.w3.org/2000/svg" fill="none" viewBox="0 0 125 20" height="20" width="125">
<g clip-path="url(#clip0_21_452)">
<path fill="#6DD7CF" d="M18.9718 7.59327H13.1247C12.7932 7.59414 12.4998 7.38016 12.3979 7.0631L10.5921 1.48415C10.4894 1.16795 10.1968 0.953979 9.86534 0.953979C9.53389 0.953979 9.24128 1.16796 9.13855 1.48415L7.3328 7.0631C7.23094 7.38017 6.93746 7.59414 6.606 7.59327H0.758892C0.429159 7.595 0.137411 7.80985 0.0364276 8.12517C-0.0645627 8.44138 0.0493751 8.78617 0.31695 8.97936L5.04197 12.4237C5.30954 12.6186 5.42089 12.9643 5.31818 13.2796L3.51243 18.8663C3.40972 19.1817 3.52106 19.5273 3.78864 19.7223C4.05623 19.9172 4.41877 19.9172 4.68548 19.7223L9.42331 16.2735C9.69089 16.0785 10.0534 16.0785 10.3201 16.2735L15.0452 19.7223C15.3119 19.9172 15.6744 19.9172 15.942 19.7223C16.2096 19.5273 16.3209 19.1817 16.2182 18.8663L14.4125 13.2839C14.3072 12.9677 14.4194 12.6185 14.6887 12.4236L19.4197 8.97925C19.689 8.78519 19.802 8.43867 19.6993 8.12247C19.5975 7.8054 19.3031 7.59229 18.9717 7.59316L18.9718 7.59327Z"></path>
</g>
<g clip-path="url(#clip1_21_452)">
<path fill="#6DD7CF" d="M45.2877 7.59327H39.4406C39.1091 7.59414 38.8157 7.38016 38.7138 7.0631L36.9081 1.48415C36.8053 1.16795 36.5127 0.953979 36.1813 0.953979C35.8498 0.953979 35.5572 1.16796 35.4545 1.48415L33.6487 7.0631C33.5469 7.38017 33.2534 7.59414 32.9219 7.59327H27.0748C26.7451 7.595 26.4533 7.80985 26.3523 8.12517C26.2514 8.44138 26.3653 8.78617 26.6329 8.97936L31.3579 12.4237C31.6255 12.6186 31.7368 12.9643 31.6341 13.2796L29.8283 18.8663C29.7256 19.1817 29.837 19.5273 30.1046 19.7223C30.3721 19.9172 30.7347 19.9172 31.0014 19.7223L35.7392 16.2735C36.0068 16.0785 36.3694 16.0785 36.6361 16.2735L41.3611 19.7223C41.6278 19.9172 41.9903 19.9172 42.2579 19.7223C42.5255 19.5273 42.6368 19.1817 42.5341 18.8663L40.7284 13.2839C40.6231 12.9677 40.7353 12.6185 41.0046 12.4236L45.7356 8.97925C46.0049 8.78519 46.118 8.43867 46.0152 8.12247C45.9134 7.8054 45.619 7.59229 45.2876 7.59316L45.2877 7.59327Z"></path>
</g>
<g clip-path="url(#clip2_21_452)">
<path fill="#6DD7CF" d="M71.6031 7.59327H65.756C65.4246 7.59414 65.1311 7.38016 65.0292 7.0631L63.2235 1.48415C63.1208 1.16795 62.8281 0.953979 62.4967 0.953979C62.1652 0.953979 61.8726 1.16796 61.7699 1.48415L59.9641 7.0631C59.8623 7.38017 59.5688 7.59414 59.2373 7.59327H53.3902C53.0605 7.595 52.7688 7.80985 52.6678 8.12517C52.5668 8.44138 52.6807 8.78617 52.9483 8.97936L57.6733 12.4237C57.9409 12.6186 58.0522 12.9643 57.9495 13.2796L56.1438 18.8663C56.0411 19.1817 56.1524 19.5273 56.42 19.7223C56.6876 19.9172 57.0501 19.9172 57.3168 19.7223L62.0547 16.2735C62.3222 16.0785 62.6848 16.0785 62.9515 16.2735L67.6765 19.7223C67.9432 19.9172 68.3058 19.9172 68.5733 19.7223C68.8409 19.5273 68.9523 19.1817 68.8496 18.8663L67.0438 13.2839C66.9385 12.9677 67.0507 12.6185 67.32 12.4236L72.051 8.97925C72.3203 8.78519 72.4334 8.43867 72.3307 8.12247C72.2288 7.8054 71.9345 7.59229 71.603 7.59316L71.6031 7.59327Z"></path>
</g>
<g clip-path="url(#clip3_21_452)">
<path fill="#6DD7CF" d="M97.9191 7.59327H92.0719C91.7405 7.59414 91.447 7.38016 91.3452 7.0631L89.5394 1.48415C89.4367 1.16795 89.1441 0.953979 88.8126 0.953979C88.4812 0.953979 88.1885 1.16796 88.0858 1.48415L86.2801 7.0631C86.1782 7.38017 85.8847 7.59414 85.5533 7.59327H79.7062C79.3764 7.595 79.0847 7.80985 78.9837 8.12517C78.8827 8.44138 78.9966 8.78617 79.2642 8.97936L83.9892 12.4237C84.2568 12.6186 84.3682 12.9643 84.2654 13.2796L82.4597 18.8663C82.357 19.1817 82.4683 19.5273 82.7359 19.7223C83.0035 19.9172 83.366 19.9172 83.6327 19.7223L88.3706 16.2735C88.6382 16.0785 89.0007 16.0785 89.2674 16.2735L93.9924 19.7223C94.2591 19.9172 94.6217 19.9172 94.8893 19.7223C95.1568 19.5273 95.2682 19.1817 95.1655 18.8663L93.3597 13.2839C93.2544 12.9677 93.3666 12.6185 93.6359 12.4236L98.3669 8.97925C98.6362 8.78519 98.7493 8.43867 98.6466 8.12247C98.5447 7.8054 98.2504 7.59229 97.9189 7.59316L97.9191 7.59327Z"></path>
</g>
<mask height="20" width="20" y="0" x="105" maskUnits="userSpaceOnUse" style="mask-type:alpha" id="mask0_21_452">
<g clip-path="url(#clip4_21_452)">
<path fill="#FFCB30" d="M124.235 7.59327H118.388C118.056 7.59414 117.763 7.38016 117.661 7.0631L115.855 1.48415C115.753 1.16795 115.46 0.953979 115.129 0.953979C114.797 0.953979 114.504 1.16796 114.402 1.48415L112.596 7.0631C112.494 7.38017 112.201 7.59414 111.869 7.59327H106.022C105.692 7.595 105.401 7.80985 105.3 8.12517C105.199 8.44138 105.313 8.78617 105.58 8.97936L110.305 12.4237C110.573 12.6186 110.684 12.9643 110.581 13.2796L108.776 18.8663C108.673 19.1817 108.784 19.5273 109.052 19.7223C109.319 19.9172 109.682 19.9172 109.949 19.7223L114.686 16.2735C114.954 16.0785 115.317 16.0785 115.583 16.2735L120.308 19.7223C120.575 19.9172 120.938 19.9172 121.205 19.7223C121.473 19.5273 121.584 19.1817 121.481 18.8663L119.676 13.2839C119.57 12.9677 119.683 12.6185 119.952 12.4236L124.683 8.97925C124.952 8.78519 125.065 8.43867 124.963 8.12247C124.861 7.8054 124.566 7.59229 124.235 7.59316L124.235 7.59327Z"></path>
</g>
</mask>
<g mask="url(#mask0_21_452)">
<rect fill="#6DD7CF" height="19" width="18" y="0.500244" x="97"></rect>
<rect fill-opacity="0.25" fill="#6DD7CF" transform="matrix(-1 0 0 1 132 1.00024)" height="19" width="17"></rect>
</g>
<defs>
<clipPath id="clip0_21_452">
<rect transform="translate(0 0.131592)" fill="white" height="19.7368" width="19.7368"></rect>
</clipPath>
<clipPath id="clip1_21_452">
<rect transform="translate(26.3159 0.131592)" fill="white" height="19.7368" width="19.7368"></rect>
</clipPath>
<clipPath id="clip2_21_452">
<rect transform="translate(52.6313 0.131592)" fill="white" height="19.7368" width="19.7368"></rect>
</clipPath>
<clipPath id="clip3_21_452">
<rect transform="translate(78.9473 0.131592)" fill="white" height="19.7368" width="19.7368"></rect>
</clipPath>
<clipPath id="clip4_21_452">
<rect transform="translate(105.263 0.131592)" fill="white" height="19.7368" width="19.7368"></rect>
</clipPath>
</defs>
</svg>
